HIERARCHY
ROOT Hips
{
	OFFSET -0.001795 -0.223333 0.028219
	CHANNELS 6 Xposition Yposition Zposition Zrotation Yrotation Xrotation 
	JOINT LeftUpLeg
	{
		OFFSET 0.069520 -0.091406 -0.006815
		CHANNELS 3 Zrotation Yrotation Xrotation
		JOINT LeftLeg
		{
			OFFSET 0.034277 -0.375199 -0.004496
			CHANNELS 3 Zrotation Yrotation Xrotation
			JOINT LeftFoot
			{
				OFFSET -0.013596 -0.397961 -0.043693
				CHANNELS 3 Zrotation Yrotation Xrotation
				JOINT LeftToe
				{
					OFFSET 0.026358 -0.055791 0.119288
					CHANNELS 3 Zrotation Yrotation Xrotation
					End Site
					{
						OFFSET 0.000000 0.000000 0.000000
					}
				}
			}
		}
	}
	JOINT RightUpLeg
	{
		OFFSET -0.067670 -0.090522 -0.004320
		CHANNELS 3 Zrotation Yrotation Xrotation
		JOINT RightLeg
		{
			OFFSET -0.038290 -0.382569 -0.008850
			CHANNELS 3 Zrotation Yrotation Xrotation
			JOINT RightFoot
			{
				OFFSET 0.015774 -0.398415 -0.042312
				CHANNELS 3 Zrotation Yrotation Xrotation
				JOINT RightToe
				{
					OFFSET -0.025372 -0.048144 0.123348
					CHANNELS 3 Zrotation Yrotation Xrotation
					End Site
					{
						OFFSET 0.000000 0.000000 0.000000
					}
				}
			}
		}
	}
	JOINT Spine
	{
		OFFSET -0.002533 0.108963 -0.026696
		CHANNELS 3 Zrotation Yrotation Xrotation
		JOINT Spine1
		{
			OFFSET 0.005487 0.135180 0.001092
			CHANNELS 3 Zrotation Yrotation Xrotation
			JOINT Spine2
			{
				OFFSET 0.001457 0.052922 0.025425
				CHANNELS 3 Zrotation Yrotation Xrotation
				JOINT Neck
				{
					OFFSET -0.002778 0.213870 -0.042857
					CHANNELS 3 Zrotation Yrotation Xrotation
					JOINT Head
					{
						OFFSET 0.005152 0.064970 0.051349
						CHANNELS 3 Zrotation Yrotation Xrotation
						End Site
						{
							OFFSET 0.000000 0.000000 0.000000
						}
					}
				}
				JOINT LeftShoulder
				{
					OFFSET 0.078845 0.121749 -0.034090
					CHANNELS 3 Zrotation Yrotation Xrotation
					JOINT LeftArm
					{
						OFFSET 0.090977 0.030469 -0.008868
						CHANNELS 3 Zrotation Yrotation Xrotation
						JOINT LeftForeArm
						{
							OFFSET 0.259612 -0.012772 -0.027456
							CHANNELS 3 Zrotation Yrotation Xrotation
							JOINT LeftHand
							{
								OFFSET 0.249234 0.008986 -0.001171
								CHANNELS 3 Zrotation Yrotation Xrotation
								End Site
								{
									OFFSET 0.000000 0.000000 0.000000
								}
							}
						}
					}
				}
				JOINT RightShoulder
				{
					OFFSET -0.081759 0.118833 -0.038615
					CHANNELS 3 Zrotation Yrotation Xrotation
					JOINT RightArm
					{
						OFFSET -0.096012 0.032551 -0.009143
						CHANNELS 3 Zrotation Yrotation Xrotation
						JOINT RightForeArm
						{
							OFFSET -0.253742 -0.013329 -0.021401
							CHANNELS 3 Zrotation Yrotation Xrotation
							JOINT RightHand
							{
								OFFSET -0.255298 0.007772 -0.005559
								CHANNELS 3 Zrotation Yrotation Xrotation
								End Site
								{
									OFFSET 0.000000 0.000000 0.000000
								}
							}
						}
					}
				}
			}
		}
	}
}
MOTION
Frames: 10
Frame Time: 0.050000
-0.177259 0.951572 0.138264 -2.200656 14.825432 -0.422996 5.475421 -0.350665 -2.937388 1.587902 -0.183421 0.925713 6.466031 16.092140 12.761687 0.000000 0.000000 0.000000 -1.180496 0.679096 -8.067929 -2.974004 0.655294 5.439096 1.921435 1.397429 10.354021 0.000000 0.000000 0.000000 8.770034 -0.069648 -0.889433 -4.286498 2.007357 -0.494303 -4.925799 9.459767 13.817094 7.223366 -4.266741 -4.842726 0.000000 0.000000 0.000000 3.702201 -6.550543 2.667349 -46.997536 7.151228 -10.146724 -117.211122 -43.959246 58.783789 0.000000 0.000000 0.000000 -3.406398 -2.606400 -1.402654 50.604226 -20.568786 -11.052156 103.364623 30.368792 50.295553 0.000000 0.000000 0.000000 
-0.178516 0.951467 0.135520 -2.442395 14.962521 -0.566029 5.925863 -0.362775 -2.900747 1.338483 -0.134754 0.431362 6.368387 15.971048 12.791673 0.000000 0.000000 0.000000 -0.795284 0.702737 -7.986605 -3.113632 0.680108 5.450684 1.819634 1.234533 10.285847 0.000000 0.000000 0.000000 8.631510 -0.030484 -1.195434 -4.003515 1.877375 -0.430159 -4.730783 8.915024 13.647835 7.555746 -4.660707 -4.566478 0.000000 0.000000 0.000000 3.047403 -5.886744 2.341620 -47.854060 6.585602 -10.108334 -120.185696 -45.654173 64.871106 0.000000 0.000000 0.000000 -2.700007 -3.138756 -1.508624 50.962360 -20.433334 -11.195018 107.161195 32.933549 56.653182 0.000000 0.000000 0.000000 
-0.180206 0.951690 0.132535 -2.580915 14.773394 -0.487800 6.163886 -0.373103 -3.022148 1.243126 -0.115206 0.197881 6.199530 15.794149 13.097328 0.000000 0.000000 0.000000 -0.582561 0.724027 -8.023197 -3.156230 0.677024 5.194184 1.796937 1.217632 10.119165 0.000000 0.000000 0.000000 8.718702 -0.014658 -1.373313 -3.846784 1.801534 -0.308621 -4.631478 8.658867 13.106179 7.638783 -4.822576 -4.330005 0.000000 0.000000 0.000000 1.738684 -5.595378 1.976704 -48.770923 5.790834 -9.888147 -122.956685 -47.772081 71.511990 0.000000 0.000000 0.000000 -1.697468 -3.907634 -1.691390 52.068814 -19.707932 -11.262734 110.839596 36.040694 64.202741 0.000000 0.000000 0.000000 
-0.182307 0.951334 0.129319 -2.890633 14.742623 -0.609394 6.808911 -0.387282 -2.854406 0.949087 -0.080677 -0.006554 6.288638 15.891557 13.010376 0.000000 0.000000 0.000000 -0.072591 0.777353 -8.186157 -3.192769 0.699752 5.573220 1.581781 0.906028 9.672417 0.000000 0.000000 0.000000 8.610656 -0.034446 -1.147811 -3.656731 1.721486 -0.456931 -4.232004 8.328837 13.079524 8.031032 -5.058058 -4.695386 0.000000 0.000000 0.000000 0.618980 -5.259525 1.635471 -50.240762 4.136632 -9.493498 -125.878802 -50.457878 79.240999 0.000000 0.000000 0.000000 -0.947942 -3.963995 -1.643890 53.813900 -18.275609 -11.197858 114.564235 39.770875 73.202932 0.000000 0.000000 0.000000 
-0.184840 0.950913 0.125863 -2.916682 14.877229 -0.851153 6.856191 -0.390352 -2.958891 0.841247 -0.084633 0.285414 6.104216 15.568356 12.639829 0.000000 0.000000 0.000000 -0.005792 0.786364 -8.248418 -3.172446 0.708214 5.863915 1.290228 0.462474 9.158856 0.000000 0.000000 0.000000 8.582356 -0.071921 -0.743794 -3.530331 1.652940 -0.150995 -4.170305 8.147337 12.591065 8.053053 -4.863301 -5.402850 0.000000 0.000000 0.000000 -0.419643 -5.825516 1.582900 -51.574603 2.083192 -8.834404 -128.112037 -53.807164 86.806804 0.000000 0.000000 0.000000 0.082574 -3.904620 -1.535851 56.068937 -16.457783 -10.983622 117.260914 43.245798 81.150613 0.000000 0.000000 0.000000 
-0.187261 0.950436 0.122554 -3.067009 14.837662 -1.171809 7.050602 -0.392006 -2.978026 0.751164 -0.092638 0.632749 6.206538 15.654907 12.387520 0.000000 0.000000 0.000000 0.156802 0.816849 -8.460850 -2.971615 0.691483 6.341427 0.975870 -0.044290 8.565024 0.000000 0.000000 0.000000 8.456242 -0.133959 -0.065781 -3.488922 1.638690 -0.188799 -3.968505 8.572621 12.326738 8.363383 -5.051600 -5.521694 0.000000 0.000000 0.000000 -1.332181 -6.751229 1.655144 -53.008060 0.291875 -8.283422 -128.466032 -57.246050 91.439327 0.000000 0.000000 0.000000 1.421132 -3.193222 -1.132711 58.217717 -14.140910 -10.445850 119.111956 47.694379 89.761179 0.000000 0.000000 0.000000 
-0.189264 0.950149 0.119742 -3.011786 14.925514 -1.540066 6.944419 -0.386488 -3.073006 0.619057 -0.106598 1.196657 6.380513 15.864385 12.191704 0.000000 0.000000 0.000000 0.043333 0.805106 -8.447941 -2.782549 0.667880 6.648165 0.563490 -0.854028 8.349657 0.000000 0.000000 0.000000 8.285727 -0.184079 0.531371 -3.368950 1.587738 -0.207813 -3.850629 8.712709 12.126184 8.201612 -4.674961 -6.276848 0.000000 0.000000 0.000000 -2.102405 -7.526183 1.723660 -53.918441 -1.038827 -7.793273 -128.542954 -61.181549 96.258714 0.000000 0.000000 0.000000 2.508794 -2.539228 -0.750705 60.136006 -11.972221 -9.837437 119.910908 51.824429 96.230560 0.000000 0.000000 0.000000 
-0.190630 0.950033 0.117742 -2.994438 14.962895 -1.853596 6.923145 -0.376264 -2.888995 0.456127 -0.081804 0.980487 6.528148 16.125604 12.458870 0.000000 0.000000 0.000000 -0.070680 0.771187 -8.157954 -2.389384 0.595021 6.662767 0.065639 -1.878415 8.219306 0.000000 0.000000 0.000000 8.041284 -0.219667 1.012795 -3.250320 1.530792 -0.086883 -3.762824 9.215186 11.723130 8.525629 -4.671967 -7.004792 0.000000 0.000000 0.000000 -2.909082 -8.302178 1.763217 -54.445440 -1.204858 -7.696599 -128.833037 -64.602285 100.225454 0.000000 0.000000 0.000000 4.126605 -2.069540 -0.351819 61.272549 -9.595507 -8.959989 120.686318 56.231106 102.892436 0.000000 0.000000 0.000000 
-0.191481 0.950117 0.116317 -2.843332 15.177864 -1.919934 6.859069 -0.372053 -2.738109 0.226147 -0.049300 0.699802 6.472270 16.060149 12.490173 0.000000 0.000000 0.000000 -0.448349 0.721115 -7.935885 -2.040021 0.526012 6.595152 -0.230410 -2.454837 8.046489 0.000000 0.000000 0.000000 7.928095 -0.215136 1.020907 -3.234166 1.509948 0.197735 -3.800092 9.256791 11.550157 8.606469 -4.773391 -6.849504 0.000000 0.000000 0.000000 -3.363551 -8.227108 1.625689 -54.869668 -0.864787 -7.882905 -129.128846 -66.683602 102.892651 0.000000 0.000000 0.000000 5.039287 -1.722699 -0.080699 62.385659 -7.902354 -8.327487 120.647379 60.010270 107.242327 0.000000 0.000000 0.000000 
-0.192045 0.950111 0.115128 -2.693520 15.542685 -2.093480 6.779075 -0.368748 -2.633003 0.029944 -0.027048 0.562986 6.546160 16.171663 12.467346 0.000000 0.000000 0.000000 -0.634094 0.689634 -7.763898 -1.730279 0.475419 7.036902 -0.800109 -3.560037 7.596944 0.000000 0.000000 0.000000 7.979401 -0.222422 1.103553 -3.214557 1.494319 0.327682 -4.016193 9.265742 11.539899 8.494484 -4.473210 -7.492345 0.000000 0.000000 0.000000 -3.663044 -8.677792 1.692944 -55.542948 -0.279514 -8.273620 -128.829242 -68.466147 104.422442 0.000000 0.000000 0.000000 6.002466 -1.463172 0.173115 63.891445 -6.102592 -7.607404 119.883980 64.041409 110.762107 0.000000 0.000000 0.000000 
